<svg xmlns="http://www.w3.org/2000/svg" viewBox="0 0 200 40"><path fill="#333" d="M56.791 28.707q0-.983-.974-1.549-.973-.565-3.125-1.01-7.158-1.502-7.158-6.083 0-2.671 2.216-4.46 2.216-1.79 5.795-1.79 3.821 0 6.111 1.799 2.29 1.799 2.29 4.673h-5.359q0-1.149-.742-1.9-.742-.751-2.318-.751-1.354 0-2.096.612-.741.611-.741 1.557 0 .89.843 1.438.844.547 2.847.945 2.003.399 3.375.9 4.247 1.558 4.247 5.396 0 2.745-2.355 4.442t-6.083 1.697q-2.522 0-4.479-.9-1.956-.899-3.069-2.466-1.112-1.567-1.112-3.385h5.081q.074 1.428 1.057 2.189.983.76 2.633.76 1.54 0 2.328-.584.788-.584.788-1.53Zm24.932 5.545-.149-2.04q-1.984 2.411-5.489 2.411-3.227 0-4.924-1.855-1.696-1.854-1.734-5.433V14.186h5.36v12.963q0 3.134 2.856 3.134 2.726 0 3.746-1.891V14.186h5.378v20.066h-5.044Zm18.849-20.066v20.066h-5.378V14.186h5.378Zm-5.693-5.192q0-1.206.806-1.985.807-.779 2.198-.779 1.372 0 2.188.779.816.779.816 1.985 0 1.224-.825 2.002-.825.779-2.179.779-1.354 0-2.179-.779-.825-.778-.825-2.002Zm21.056 25.258h-5.378V18.118h-2.986v-3.932h2.986V12.48q0-3.375 1.938-5.239 1.938-1.864 5.424-1.864 1.113 0 2.726.371l-.056 4.154q-.667-.167-1.632-.167-3.022 0-3.022 2.838v1.613h3.987v3.932h-3.987v16.134Zm27.917 0h-5.415q-.371-.723-.538-1.799-1.947 2.17-5.062 2.17-2.949 0-4.887-1.706-1.938-1.707-1.938-4.303 0-3.19 2.365-4.896 2.364-1.706 6.833-1.724h2.467v-1.15q0-1.391-.714-2.226-.714-.834-2.253-.834-1.354 0-2.124.649-.769.649-.769 1.78h-5.36q0-1.743 1.076-3.227 1.075-1.483 3.041-2.327 1.966-.844 4.414-.844 3.709 0 5.888 1.864t2.179 5.239v8.698q.018 2.855.797 4.321v.315Zm-9.847-3.728q1.187 0 2.188-.528 1.002-.529 1.484-1.419v-3.449h-2.003q-4.024 0-4.284 2.781l-.018.316q0 1.001.704 1.65.705.649 1.929.649Zm28.622-16.468-.074 5.156q-1.094-.149-1.929-.149-3.041 0-3.987 2.059v13.13h-5.359V14.186h5.063l.148 2.392q1.613-2.763 4.469-2.763.89 0 1.669.241Zm6.61.13h5.025l.167 2.244q2.133-2.615 5.768-2.615 3.876 0 5.322 3.06 2.114-3.06 6.027-3.06 3.264 0 4.859 1.901Q198 17.617 198 21.437v12.815h-5.378V21.456q0-1.706-.668-2.495-.667-.788-2.355-.788-2.411 0-3.338 2.3l.019 13.779h-5.36V21.474q0-1.743-.686-2.522-.686-.779-2.337-.779-2.281 0-3.301 1.892v14.187h-5.359V14.186Z"/><path fill="#58C7BE" d="M0 0h40v40H0V0Z"/><circle cx="11.515" cy="15" r="5.833" fill="#FFF"/><circle cx="14.643" cy="15.265" r="2.705" fill="#333"/><circle cx="28.485" cy="15" r="5.833" fill="#FFF"/><circle cx="31.613" cy="15.265" r="2.705" fill="#333"/></svg>